<?xml version="1.0" encoding="utf-8"?>
<!-- Generator: Adobe Illustrator 25.0.1, SVG Export Plug-In . SVG Version: 6.00 Build 0)  -->
<svg version="1.1" id="Layer_1" xmlns="http://www.w3.org/2000/svg" xmlns:xlink="http://www.w3.org/1999/xlink" x="0px" y="0px"
	 viewBox="0 0 200 56" style="enable-background:new 0 0 200 56;" xml:space="preserve">
<style type="text/css">
	.st0{fill:none;stroke:#000000;stroke-miterlimit:10;}
	.st1{fill:#020203;}
</style>
<path class="st0" d="M33.19,54.75H5.88c-2.61,0-4.75-2.14-4.75-4.75v-9.18c0-2.61,2.14-4.75,4.75-4.75h27.31
	c2.61,0,4.75,2.14,4.75,4.75V50C37.94,52.61,35.8,54.75,33.19,54.75z"/>
<path class="st1" d="M123.81,23.34v8.75l-2.96-2.97c-0.22-0.22-0.57-0.22-0.79,0c-0.22,0.22-0.22,0.57,0,0.79l3.91,3.93
	c0.22,0.22,0.57,0.22,0.79,0l3.91-3.93c0.11-0.11,0.16-0.25,0.16-0.4c0-0.14-0.05-0.29-0.16-0.4c-0.22-0.22-0.57-0.22-0.79,0
	l-2.96,2.97v-8.75c0-0.31-0.25-0.56-0.56-0.56S123.81,23.03,123.81,23.34z"/>
<path class="st1" d="M40.71,45.41l8.71,0l-2.96,2.97c-0.22,0.22-0.22,0.57,0,0.79c0.22,0.22,0.57,0.22,0.79,0l3.91-3.93
	c0.22-0.22,0.22-0.57,0-0.79l-3.91-3.93c-0.11-0.11-0.25-0.16-0.4-0.16c-0.14,0-0.29,0.05-0.4,0.16c-0.22,0.22-0.22,0.57,0,0.79
	l2.96,2.97l-8.71,0c-0.31,0-0.56,0.25-0.56,0.56S40.4,45.41,40.71,45.41z"/>
<g>
	<g>
		<path d="M11.61,49.18c-0.41-0.24-0.73-0.57-0.95-1c-0.23-0.43-0.34-0.93-0.34-1.5v-2.2c0-0.57,0.11-1.07,0.34-1.5
			c0.22-0.43,0.54-0.77,0.95-1c0.41-0.24,0.88-0.35,1.42-0.35c0.54,0,1.01,0.12,1.42,0.35c0.41,0.24,0.73,0.57,0.95,1
			s0.34,0.93,0.34,1.5v2.2c0,0.57-0.11,1.07-0.34,1.5s-0.54,0.77-0.95,1c-0.41,0.24-0.88,0.35-1.42,0.35
			C12.5,49.54,12.02,49.42,11.61,49.18z M13.88,48.25c0.24-0.14,0.43-0.35,0.56-0.61c0.13-0.26,0.2-0.57,0.2-0.92v-2.27
			c0-0.35-0.07-0.65-0.2-0.92c-0.13-0.26-0.32-0.47-0.56-0.61c-0.24-0.14-0.52-0.22-0.84-0.22s-0.6,0.07-0.84,0.22
			c-0.24,0.14-0.43,0.35-0.56,0.61c-0.13,0.26-0.2,0.57-0.2,0.92v2.27c0,0.35,0.07,0.65,0.2,0.92c0.13,0.26,0.32,0.47,0.56,0.61
			c0.24,0.14,0.52,0.22,0.84,0.22S13.64,48.4,13.88,48.25z"/>
		<path d="M18.76,49.43c-0.33-0.07-0.64-0.18-0.93-0.32c-0.29-0.14-0.56-0.32-0.81-0.53l0.67-0.83c0.29,0.25,0.62,0.45,0.97,0.58
			c0.35,0.13,0.74,0.19,1.15,0.19c0.56,0,0.99-0.1,1.3-0.31c0.31-0.21,0.46-0.5,0.46-0.88v0c0-0.27-0.07-0.48-0.21-0.64
			c-0.14-0.16-0.32-0.28-0.54-0.35s-0.51-0.15-0.86-0.21c-0.01,0-0.02-0.01-0.03-0.01s-0.02,0-0.03,0l-0.08-0.02
			c-0.52-0.09-0.94-0.19-1.26-0.3s-0.6-0.32-0.83-0.61c-0.23-0.3-0.35-0.72-0.35-1.27V43.9c0-0.48,0.11-0.89,0.32-1.23
			c0.21-0.34,0.53-0.6,0.94-0.78c0.41-0.18,0.9-0.27,1.48-0.27c0.28,0,0.55,0.03,0.81,0.09s0.53,0.15,0.79,0.27
			c0.26,0.12,0.52,0.27,0.77,0.45l-0.62,0.86c-0.29-0.22-0.59-0.38-0.88-0.49s-0.58-0.16-0.88-0.16c-0.53,0-0.94,0.11-1.23,0.32
			c-0.29,0.21-0.44,0.51-0.44,0.9v0c0,0.27,0.08,0.48,0.23,0.63c0.15,0.15,0.34,0.27,0.56,0.34c0.22,0.07,0.54,0.15,0.94,0.23
			c0.01,0,0.03,0.01,0.04,0.01c0.01,0,0.03,0,0.04,0.01c0.02,0,0.04,0.01,0.06,0.01c0.02,0,0.04,0.01,0.06,0.01
			c0.47,0.1,0.86,0.21,1.17,0.34c0.31,0.13,0.58,0.34,0.79,0.64c0.21,0.29,0.32,0.69,0.32,1.2v0.01c0,0.47-0.11,0.88-0.33,1.21
			c-0.22,0.34-0.55,0.59-0.97,0.77s-0.93,0.26-1.53,0.26C19.45,49.54,19.1,49.5,18.76,49.43z"/>
		<path d="M25.31,49.18c-0.41-0.24-0.72-0.58-0.94-1.01c-0.22-0.44-0.33-0.94-0.33-1.52v-2.13c0-0.58,0.11-1.08,0.33-1.52
			c0.22-0.44,0.54-0.78,0.94-1.02c0.4-0.24,0.87-0.36,1.41-0.36c0.44,0,0.85,0.09,1.22,0.29s0.68,0.46,0.93,0.81
			c0.25,0.35,0.42,0.75,0.51,1.21h-1.11c-0.07-0.24-0.18-0.46-0.34-0.65c-0.16-0.19-0.34-0.34-0.55-0.44
			c-0.21-0.1-0.43-0.15-0.66-0.15c-0.31,0-0.59,0.08-0.83,0.23c-0.24,0.15-0.42,0.37-0.55,0.64s-0.2,0.6-0.2,0.96v2.13
			c0,0.36,0.07,0.68,0.2,0.96c0.13,0.28,0.31,0.49,0.55,0.64c0.24,0.15,0.51,0.23,0.83,0.23c0.23,0,0.45-0.05,0.66-0.14
			c0.21-0.1,0.39-0.24,0.55-0.43c0.16-0.19,0.27-0.41,0.34-0.67h1.11c-0.09,0.46-0.26,0.86-0.51,1.21
			c-0.25,0.35-0.56,0.62-0.93,0.81c-0.37,0.19-0.78,0.29-1.22,0.29C26.18,49.54,25.71,49.42,25.31,49.18z"/>
	</g>
</g>
<path class="st0" d="M85.61,54.75H58.29c-2.61,0-4.75-2.14-4.75-4.75v-9.18c0-2.61,2.14-4.75,4.75-4.75h27.31
	c2.61,0,4.75,2.14,4.75,4.75V50C90.36,52.61,88.22,54.75,85.61,54.75z"/>
<g>
	<g>
		<path d="M62.55,41.79h1.08v7.75h-1.08V41.79z M63.08,41.79h4.43v1.03h-4.43V41.79z M63.08,45.18h3.85v1.03h-3.85V45.18z
			 M63.08,48.51h4.43v1.03h-4.43V48.51z"/>
		<path d="M69.05,41.79h0.98l3.77,5.99l-0.13,0.14v-6.13h1.07v7.74h-0.99L70,43.64l0.13-0.14v6.04h-1.07V41.79z"/>
		<path d="M75.87,41.79h1.18l1.85,6.07l1.85-6.07h1.18l-2.52,7.75h-1.03L75.87,41.79z"/>
	</g>
</g>
<path class="st0" d="M138.02,54.75h-27.31c-2.61,0-4.75-2.14-4.75-4.75v-9.18c0-2.61,2.14-4.75,4.75-4.75h27.31
	c2.61,0,4.75,2.14,4.75,4.75V50C142.77,52.61,140.64,54.75,138.02,54.75z"/>
<g>
	<g>
		<path d="M108.27,42.09h1.08v7.75h-1.08V42.09z M108.8,42.09h4.33v1.03h-4.33V42.09z M108.8,45.54h3.74v1.03h-3.74V45.54z"/>
		<path d="M115.43,49.84h-1.08v-7.75h1.08V49.84z"/>
		<path d="M117.34,42.09h1.08v7.75h-1.08V42.09z M117.88,48.81h4.42v1.03h-4.42V48.81z"/>
		<path d="M122.51,42.09h5.45v1.03h-5.45V42.09z M124.69,42.73h1.08v7.11h-1.08V42.73z"/>
		<path d="M128.8,42.09h1.08v7.75h-1.08V42.09z M129.33,42.09h4.43v1.03h-4.43V42.09z M129.33,45.47h3.85v1.03h-3.85V45.47z
			 M129.33,48.81h4.43v1.03h-4.43V48.81z"/>
		<path d="M135.3,42.09h1.08v7.75h-1.08V42.09z M135.77,45.53h2.63c0.21,0,0.39-0.05,0.55-0.15s0.28-0.24,0.37-0.42
			c0.09-0.18,0.13-0.39,0.13-0.63s-0.04-0.45-0.13-0.63c-0.09-0.18-0.21-0.32-0.37-0.42s-0.34-0.15-0.55-0.15h-2.63v-1.03h2.59
			c0.45,0,0.84,0.09,1.18,0.28s0.6,0.45,0.79,0.79s0.28,0.73,0.28,1.17s-0.09,0.84-0.28,1.17s-0.45,0.6-0.79,0.79
			s-0.73,0.28-1.17,0.28h-2.59V45.53z M137.87,46.32l1.08-0.25l1.97,3.76h-1.28L137.87,46.32z"/>
	</g>
</g>
<path class="st1" d="M93.13,46.25l8.71,0l-2.96,2.97c-0.22,0.22-0.22,0.57,0,0.79c0.22,0.22,0.57,0.22,0.79,0l3.91-3.93
	c0.22-0.22,0.22-0.57,0-0.79l-3.91-3.93c-0.11-0.11-0.25-0.16-0.4-0.16c-0.14,0-0.29,0.05-0.4,0.16c-0.22,0.22-0.22,0.57,0,0.79
	l2.96,2.97l-8.71,0c-0.31,0-0.56,0.25-0.56,0.56S92.82,46.25,93.13,46.25z"/>
<path class="st0" d="M153.13,20.71H95.61c-2.61,0-4.75-2.14-4.75-4.75V6.78c0-2.61,2.14-4.75,4.75-4.75h57.52
	c2.61,0,4.75,2.14,4.75,4.75v9.18C157.88,18.57,155.74,20.71,153.13,20.71z"/>
<g>
	<g>
		<path d="M95.31,7.69h1.08v7.75h-1.08V7.69z M95.84,7.69h4.33v1.03h-4.33V7.69z M95.84,11.14h3.74v1.03h-3.74V11.14z"/>
		<path d="M102.47,15.43h-1.08V7.69h1.08V15.43z"/>
		<path d="M104.38,7.69h1.08v7.75h-1.08V7.69z M104.92,14.4h4.42v1.03h-4.42V14.4z"/>
		<path d="M109.55,7.69H115v1.03h-5.45V7.69z M111.73,8.32h1.08v7.11h-1.08V8.32z"/>
		<path d="M115.85,7.69h1.08v7.75h-1.08V7.69z M116.37,7.69h4.43v1.03h-4.43V7.69z M116.37,11.07h3.85v1.03h-3.85V11.07z
			 M116.37,14.4h4.43v1.03h-4.43V14.4z"/>
		<path d="M122.34,7.68h1.08v7.75h-1.08V7.68z M122.81,11.12h2.63c0.21,0,0.39-0.05,0.55-0.15c0.16-0.1,0.28-0.24,0.37-0.42
			s0.13-0.39,0.13-0.63s-0.04-0.45-0.13-0.63s-0.21-0.32-0.37-0.42c-0.16-0.1-0.34-0.15-0.55-0.15h-2.63V7.68h2.59
			c0.45,0,0.84,0.09,1.18,0.28c0.34,0.19,0.6,0.45,0.79,0.79s0.28,0.73,0.28,1.17s-0.09,0.84-0.28,1.17s-0.45,0.6-0.79,0.79
			c-0.34,0.18-0.73,0.28-1.17,0.28h-2.59V11.12z M124.92,11.92l1.08-0.25l1.97,3.76h-1.28L124.92,11.92z"/>
		<path d="M132.89,12.14v1.03h-3.57v-1.03H132.89z"/>
		<path d="M134.64,7.69h1.08v7.75h-1.08V7.69z M135.16,7.69h4.43v1.03h-4.43V7.69z M135.16,11.07h3.85v1.03h-3.85V11.07z
			 M135.16,14.4h4.43v1.03h-4.43V14.4z"/>
		<path d="M141.13,7.69h0.98l3.77,5.99l-0.13,0.14V7.69h1.07v7.74h-0.99l-3.76-5.9l0.13-0.14v6.04h-1.07V7.69z"/>
		<path d="M147.95,7.69h1.18l1.85,6.07l1.85-6.07h1.18l-2.52,7.75h-1.03L147.95,7.69z"/>
	</g>
</g>
<path class="st1" d="M145.55,46.25l8.71,0l-2.96,2.97c-0.22,0.22-0.22,0.57,0,0.79c0.22,0.22,0.57,0.22,0.79,0l3.91-3.93
	c0.22-0.22,0.22-0.57,0-0.79l-3.91-3.93c-0.11-0.11-0.25-0.16-0.4-0.16c-0.14,0-0.29,0.05-0.4,0.16c-0.22,0.22-0.22,0.57,0,0.79
	l2.96,2.97l-8.71,0c-0.31,0-0.56,0.25-0.56,0.56S145.24,46.25,145.55,46.25z"/>
<g>
	<g>
		<path d="M161.84,49.83c-0.52-0.3-0.93-0.73-1.22-1.27s-0.43-1.18-0.43-1.91v-2.79c0-0.72,0.14-1.36,0.43-1.91s0.69-0.97,1.22-1.27
			c0.52-0.3,1.13-0.45,1.82-0.45s1.29,0.15,1.82,0.45c0.52,0.3,0.93,0.72,1.22,1.27c0.29,0.55,0.43,1.18,0.43,1.91v2.79
			c0,0.72-0.14,1.36-0.43,1.91c-0.29,0.55-0.69,0.97-1.22,1.27c-0.52,0.3-1.13,0.45-1.82,0.45S162.37,50.13,161.84,49.83z
			 M164.73,48.65c0.31-0.18,0.55-0.44,0.72-0.78c0.17-0.34,0.25-0.73,0.25-1.17v-2.89c0-0.44-0.08-0.83-0.25-1.17
			c-0.17-0.34-0.41-0.6-0.72-0.78c-0.31-0.18-0.67-0.27-1.07-0.27s-0.76,0.09-1.07,0.27c-0.31,0.18-0.55,0.44-0.72,0.78
			c-0.17,0.34-0.25,0.73-0.25,1.17v2.89c0,0.44,0.08,0.83,0.25,1.17c0.17,0.34,0.41,0.6,0.72,0.78c0.31,0.18,0.67,0.27,1.07,0.27
			S164.42,48.83,164.73,48.65z"/>
		<path d="M170.6,47.42c0,0.49,0.13,0.87,0.38,1.14c0.25,0.27,0.6,0.4,1.06,0.4c0.45,0,0.8-0.12,1.05-0.36
			c0.25-0.24,0.37-0.58,0.37-1.02l0.09,1.47c-0.14,0.35-0.38,0.64-0.7,0.87c-0.33,0.24-0.73,0.35-1.2,0.35
			c-0.78,0-1.38-0.25-1.8-0.75c-0.42-0.5-0.63-1.2-0.63-2.11v-4.28h1.38V47.42z M173.46,43.15h1.38v7.03h-1.38V43.15z"/>
		<path d="M176.39,43.15h3.17v1.25h-3.17V43.15z M177.52,49.74c-0.26-0.31-0.4-0.78-0.4-1.39V41.1h1.38v7.26
			c0,0.17,0.03,0.3,0.1,0.4c0.07,0.09,0.17,0.14,0.3,0.14h0.66v1.31h-0.8C178.2,50.21,177.78,50.06,177.52,49.74z"/>
		<path d="M181.46,43.15h1.38v9.89h-1.38V43.15z M183.47,49.97c-0.33-0.21-0.57-0.51-0.72-0.89l0.09-1.47c0,0.3,0.05,0.56,0.16,0.77
			c0.11,0.21,0.27,0.37,0.47,0.49c0.21,0.11,0.46,0.17,0.75,0.17c0.46,0,0.81-0.14,1.06-0.42c0.25-0.28,0.38-0.67,0.38-1.18v-1.52
			c0-0.51-0.13-0.92-0.38-1.2c-0.25-0.28-0.6-0.43-1.06-0.43c-0.29,0-0.54,0.05-0.75,0.16c-0.21,0.11-0.36,0.27-0.47,0.48
			c-0.11,0.21-0.16,0.46-0.16,0.75l-0.14-1.35c0.21-0.41,0.49-0.73,0.83-0.95c0.34-0.22,0.72-0.34,1.15-0.34
			c0.5,0,0.92,0.11,1.28,0.34s0.62,0.55,0.81,0.98c0.19,0.43,0.28,0.95,0.28,1.55v1.53c0,0.6-0.09,1.11-0.28,1.53
			c-0.19,0.42-0.47,0.75-0.83,0.97c-0.37,0.22-0.8,0.33-1.31,0.33C184.18,50.28,183.79,50.18,183.47,49.97z"/>
		<path d="M190.39,47.42c0,0.49,0.13,0.87,0.38,1.14c0.25,0.27,0.6,0.4,1.06,0.4c0.45,0,0.8-0.12,1.05-0.36
			c0.25-0.24,0.37-0.58,0.37-1.02l0.09,1.47c-0.14,0.35-0.38,0.64-0.7,0.87c-0.33,0.24-0.73,0.35-1.2,0.35
			c-0.78,0-1.38-0.25-1.8-0.75c-0.42-0.5-0.63-1.2-0.63-2.11v-4.28h1.38V47.42z M193.25,43.15h1.38v7.03h-1.38V43.15z"/>
		<path d="M196.19,43.15h3.17v1.25h-3.17V43.15z M197.31,49.74c-0.26-0.31-0.4-0.78-0.4-1.39V41.1h1.38v7.26
			c0,0.17,0.03,0.3,0.1,0.4c0.07,0.09,0.17,0.14,0.3,0.14h0.66v1.31h-0.8C197.99,50.21,197.57,50.06,197.31,49.74z"/>
	</g>
</g>
</svg>
